<?xml version="1.0" encoding="UTF-8" standalone="no"?>
<!-- Svg Vector Icons : http://www.onlinewebfonts.com/icon -->

<svg
   xmlns:svg="http://www.w3.org/2000/svg"
   xmlns="http://www.w3.org/2000/svg"
   viewBox="0 0 979.99341 523.53723"
>
<g
   id="g8"
   transform="translate(-9.9965812,-238.22576)"><g
     transform="matrix(0.1,0,0,-0.1,0,511)"
     id="g6"><path
       d="M 476.9,2705.4 C 373.6,2667.1 285.6,2594.4 218.6,2489.2 96.2,2297.9 100,2378.2 100,111.1 c 0,-2290.1 -5.7,-2192.5 130.1,-2391.5 42.1,-61.2 109.1,-126.3 164.5,-162.6 l 93.7,-57.4 4440.6,-5.7 c 2443.2,-3.8 4476.9,0 4519,5.7 179.8,24.9 359.7,214.3 419,440 44,170.3 44,4170.8 0,4343 -40.2,153.1 -149.2,309.9 -265.9,382.6 l -93.7,57.4 -4478.8,3.8 c -3707.8,3.9 -4490.3,0 -4551.6,-21 z M 1152.3,1335.5 V 991.1 h -353.9 -354 v 344.4 344.4 h 353.9 353.9 v -344.4 z m 1052.3,0 V 991.1 h -353.9 -353.9 v 344.4 344.4 h 353.9 353.9 z m 1052.2,0 V 991.1 H 2902.9 2549 v 344.4 344.4 h 353.9 353.9 z m 1033.2,0 V 991.1 h -344.4 -344.4 v 344.4 344.4 h 344.4 344.4 z m 1052.2,0 V 991.1 h -344.4 -344.4 v 344.4 344.4 h 344.4 344.4 z m 1052.3,0 V 991.1 h -344.4 -344.4 v 344.4 344.4 h 344.4 344.4 z m 1052.3,0 V 991.1 H 7092.9 6739 v 344.4 344.4 h 353.9 353.9 z m 1052.3,0 V 991.1 h -353.9 -353.9 v 344.4 344.4 h 353.9 353.9 z m 1052.2,0 V 991.1 h -353.9 -353.9 v 344.4 344.4 h 353.9 353.9 z M 1668.9,283.3 V -61.1 H 1056.7 444.4 v 344.4 344.4 h 612.2 612.2 V 283.3 Z m 1052.2,0 V -61.1 h -344.4 -344.4 v 344.4 344.4 h 344.4 344.4 z m 1052.3,0 V -61.1 h -353.9 -353.9 v 344.4 344.4 h 353.9 353.9 z m 1052.3,0 V -61.1 h -353.9 -353.9 v 344.4 344.4 h 353.9 353.9 z m 1052.2,0 V -61.1 H 5524 5170.1 v 344.4 344.4 h 353.9 353.9 z m 1052.3,0 V -61.1 h -353.9 -353.9 v 344.4 344.4 h 353.9 353.9 z m 1033.1,0 V -61.1 H 7619 7274.6 V 283.3 627.7 H 7619 7963.4 V 283.3 Z m 1588,0 V -61.1 h -612.2 -612.2 v 344.4 344.4 h 612.2 612.2 z M 2032.4,-759.4 v -353.9 h -794 -794 v 353.9 353.9 h 794 794 z m 1033.1,0 v -353.9 h -344.4 -344.4 v 353.9 353.9 h 344.4 344.4 z m 1052.3,0 v -353.9 H 3773.4 3429 v 353.9 353.9 h 344.4 344.4 z m 1052.3,0 v -353.9 h -344.4 -344.4 v 353.9 353.9 h 344.4 344.4 z m 1052.2,0 v -353.9 h -353.9 -353.9 v 353.9 353.9 h 353.9 353.9 z m 1052.3,0 v -353.9 h -353.9 -353.9 v 353.9 353.9 h 353.9 353.9 z m 2276.7,0 v -353.9 H 8585.1 7619 v 353.9 353.9 h 966.2 966.2 v -353.9 z m -8399,-1052.3 v -353.9 h -353.9 -354 v 353.9 353.9 h 353.9 353.9 v -353.9 z m 1052.3,0 v -353.9 h -353.9 -353.9 v 353.9 353.9 h 353.9 353.9 z m 1052.2,0 v -353.9 H 2902.9 2549 v 353.9 353.9 h 353.9 353.9 z m 4017.8,0 v -353.9 H 5437.9 3601.2 v 353.9 353.9 h 1836.7 1836.7 z m 1224.5,0 v -353.9 h -440 -440 v 353.9 353.9 h 440 440 z m 1052.2,0 v -353.9 h -353.9 -353.9 v 353.9 353.9 h 353.9 353.9 z"
  /></g></g>
</svg>