<?xml version="1.0" encoding="UTF-8" standalone="no"?>
<svg
   xmlns:dc="http://purl.org/dc/elements/1.1/"
   xmlns:cc="http://creativecommons.org/ns#"
   xmlns:rdf="http://www.w3.org/1999/02/22-rdf-syntax-ns#"
   xmlns:svg="http://www.w3.org/2000/svg"
   xmlns="http://www.w3.org/2000/svg"
   xmlns:sodipodi="http://sodipodi.sourceforge.net/DTD/sodipodi-0.dtd"
   xmlns:inkscape="http://www.inkscape.org/namespaces/inkscape"
   height="303.63824pt"
   viewBox="0 -88 479.60814 303.63824"
   width="479.00357pt"
   version="1.1"
   id="svg6"
   sodipodi:docname="cloud.svg"
   inkscape:version="0.92.4 (5da689c313, 2019-01-14)">
  <metadata
     id="metadata12">
    <rdf:RDF>
      <cc:Work
         rdf:about="">
        <dc:format>image/svg+xml</dc:format>
        <dc:type
           rdf:resource="http://purl.org/dc/dcmitype/StillImage" />
        <dc:title></dc:title>
      </cc:Work>
    </rdf:RDF>
  </metadata>
  <defs
     id="defs10" />
  <sodipodi:namedview
     pagecolor="#ffffff"
     bordercolor="#666666"
     borderopacity="1"
     objecttolerance="10"
     gridtolerance="10"
     guidetolerance="10"
     inkscape:pageopacity="0"
     inkscape:pageshadow="2"
     inkscape:window-width="1920"
     inkscape:window-height="1017"
     id="namedview8"
     showgrid="false"
     inkscape:zoom="0.36951983"
     inkscape:cx="319.33687"
     inkscape:cy="203.49318"
     inkscape:window-x="-8"
     inkscape:window-y="-8"
     inkscape:window-maximized="1"
     inkscape:current-layer="svg6" />
  <path
     d="m 383.60813,31.719177 c -5.85156,0.004 -11.6875,0.58594 -17.42578,1.74609 -4.32422,-21.58203 -18.30469,-39.9921844 -37.92969,-49.957028 -19.62891,-9.964843 -42.74219,-10.386718 -62.71875,-1.140624 C 247.45579,-67.425354 192.43235,-93.140198 142.63547,-75.058167 92.838597,-56.980042 67.127659,-1.9566044 85.205784,47.840267 41.58469,49.219177 7.1276589,85.320737 7.7839089,128.96137 c 0.652344,43.63672 36.1796881,78.6914 79.8242191,78.75781 H 383.60813 c 48.60156,0 88,-39.39844 88,-88 0,-48.597663 -39.39844,-88.000003 -88,-88.000003 z m 0,0"
     id="path2"
     inkscape:connector-curvature="0"
     style="fill:#a3d4f7" />
  <path
     d="m 383.60813,23.719177 c -3.83203,0.004 -7.66016,0.23438 -11.46485,0.69141 -10.32812,-33.6328164 -41.35546,-56.617191 -76.53515,-56.69141 -8.75781,-0.0078 -17.45313,1.445312 -25.73047,4.296875 -20.48828,-44.300781 -69.04297,-68.378906 -116.70703,-57.871094 -47.66797,10.507813 -81.597659,52.765625 -81.562502,101.574219 0.0039,8.43359 1.054687,16.83594 3.117187,25.00781 C 29.311253,47.660587 -3.1340601,88.363707 0.24093986,134.18012 3.6120339,180.00043 41.666721,215.51605 87.608128,215.71918 H 383.60813 c 53.01953,0 96,-42.98047 96,-96 0,-53.019533 -42.98047,-96.000003 -96,-96.000003 z m 0,176.000003 H 87.608128 C 48.166721,199.89105 15.940159,168.27777 15.350315,128.84027 14.764378,89.402767 46.033909,56.844177 85.463597,55.840267 c 2.558593,-0.0703 4.929687,-1.36328 6.375,-3.47656 1.449218,-2.11328 1.796874,-4.78906 0.9375,-7.20312 -15.878907,-45.44141039 7.742193,-95.203129 52.988283,-111.632816 45.24609,-16.429688 95.29297,6.589844 112.26562,51.632812 0.77735,2.089844 2.38672,3.757813 4.44532,4.609375 2.0625,0.8515626 4.3789,0.8046876 6.40234,-0.128906 8.375,-3.894531 17.49609,-5.914063 26.73047,-5.921875 30.4375,0.05469 56.64844,21.4960936 62.72656,51.32031 0.8711,4.33594 5.09375,7.14063 9.42578,6.26563 5.21485,-1.04688 10.52344,-1.57813 15.84766,-1.58594 44.18359,0 80,35.82031 80,80.000003 0,44.18359 -35.81641,80 -80,80 z m 0,0"
     id="path4"
     inkscape:connector-curvature="0" />
</svg>
