<?xml version="1.0" encoding="UTF-8" standalone="no"?>
<svg
   xmlns:dc="http://purl.org/dc/elements/1.1/"
   xmlns:cc="http://creativecommons.org/ns#"
   xmlns:rdf="http://www.w3.org/1999/02/22-rdf-syntax-ns#"
   xmlns:svg="http://www.w3.org/2000/svg"
   xmlns="http://www.w3.org/2000/svg"
   xmlns:sodipodi="http://sodipodi.sourceforge.net/DTD/sodipodi-0.dtd"
   xmlns:inkscape="http://www.inkscape.org/namespaces/inkscape"
   height="127.73828pt"
   viewBox="0 -16 80 127.73828"
   width="80pt"
   version="1.1"
   id="svg34"
   sodipodi:docname="drop.svg"
   inkscape:version="0.92.4 (5da689c313, 2019-01-14)">
  <metadata
     id="metadata40">
    <rdf:RDF>
      <cc:Work
         rdf:about="">
        <dc:format>image/svg+xml</dc:format>
        <dc:type
           rdf:resource="http://purl.org/dc/dcmitype/StillImage" />
        <dc:title></dc:title>
      </cc:Work>
    </rdf:RDF>
  </metadata>
  <defs
     id="defs38" />
  <sodipodi:namedview
     pagecolor="#ffffff"
     bordercolor="#666666"
     borderopacity="1"
     objecttolerance="10"
     gridtolerance="10"
     guidetolerance="10"
     inkscape:pageopacity="0"
     inkscape:pageshadow="2"
     inkscape:window-width="1920"
     inkscape:window-height="1017"
     id="namedview36"
     showgrid="false"
     inkscape:zoom="0.36875"
     inkscape:cx="74.666667"
     inkscape:cy="170.66667"
     inkscape:window-x="-8"
     inkscape:window-y="-8"
     inkscape:window-maximized="1"
     inkscape:current-layer="svg34" />
  <path
     d="m 72,71.738281 c 0,17.67187 -14.32813,31.999999 -32,31.999999 -17.67188,0 -32,-14.328129 -32,-31.999999 0,-24 32,-80 32,-80 0,0 32,56 32,80 z m 0,0"
     id="path16"
     inkscape:connector-curvature="0"
     style="fill:#60a2d7" />
  <path
     d="m 40,111.73828 c 22.08203,-0.0273 39.97266,-17.917969 40,-39.999999 0,-25.39063 -29.67188,-78.04688 -33.05469,-84 -1.54297,-2.33203 -4.14844,-3.73828 -6.94531,-3.73828 -2.79688,0 -5.40234,1.40625 -6.94531,3.73828 C 29.67187,-6.308599 0,46.347651 0,71.738281 0.0273,93.820311 17.91797,111.71094 40,111.73828 Z M 40,8.492191 c 10.09766,19.33593 24,49.10156 24,63.24609 0,13.25391 -10.74609,24 -24,24 -13.25391,0 -24,-10.74609 -24,-24 0,-14.14453 13.90234,-43.91016 24,-63.24609 z m 0,0"
     id="path28"
     inkscape:connector-curvature="0" />
</svg>
