<?xml version="1.0" encoding="UTF-8" standalone="no"?>
<svg
   xmlns:dc="http://purl.org/dc/elements/1.1/"
   xmlns:cc="http://creativecommons.org/ns#"
   xmlns:rdf="http://www.w3.org/1999/02/22-rdf-syntax-ns#"
   xmlns:svg="http://www.w3.org/2000/svg"
   xmlns="http://www.w3.org/2000/svg"
   xmlns:sodipodi="http://sodipodi.sourceforge.net/DTD/sodipodi-0.dtd"
   xmlns:inkscape="http://www.inkscape.org/namespaces/inkscape"
   height="223.6926pt"
   viewBox="0 -48 160.0207 223.6926"
   width="159.81898pt"
   version="1.1"
   id="svg14"
   sodipodi:docname="lightning.svg"
   inkscape:version="0.92.4 (5da689c313, 2019-01-14)">
  <metadata
     id="metadata20">
    <rdf:RDF>
      <cc:Work
         rdf:about="">
        <dc:format>image/svg+xml</dc:format>
        <dc:type
           rdf:resource="http://purl.org/dc/dcmitype/StillImage" />
        <dc:title></dc:title>
      </cc:Work>
    </rdf:RDF>
  </metadata>
  <defs
     id="defs18" />
  <sodipodi:namedview
     pagecolor="#ffffff"
     bordercolor="#666666"
     borderopacity="1"
     objecttolerance="10"
     gridtolerance="10"
     guidetolerance="10"
     inkscape:pageopacity="0"
     inkscape:pageshadow="2"
     inkscape:window-width="1920"
     inkscape:window-height="1017"
     id="namedview16"
     showgrid="false"
     inkscape:zoom="0.36951983"
     inkscape:cx="160.06513"
     inkscape:cy="256.72588"
     inkscape:window-x="-8"
     inkscape:window-y="-8"
     inkscape:window-maximized="1"
     inkscape:current-layer="svg14" />
  <path
     d="M 104.00356,-40.30228 H 40.003561 l -32.0000004,96 H 80.003561 l -22.59375,112 94.593749,-144 H 88.003561 Z m 0,0"
     id="path4"
     inkscape:connector-curvature="0"
     style="fill:#ffa754" />
  <path
     d="m 110.30825,-45.22025 c -1.51563,-1.94141 -3.84375,-3.07812 -6.30469,-3.08203 H 40.003561 c -3.44531,0 -6.50391,2.20703 -7.59375,5.47266 l -32.00000038,96 c -0.8125,2.4414 -0.40234,5.12109 1.10155998,7.20703 1.50391,2.08594 3.91797,3.32422 6.49219,3.32031 H 70.226211 l -20.625,102.40234 c -0.75,3.75391 1.26172,7.51563 4.80469,8.97266 3.54297,1.45313 7.6211,0.19531 9.72656,-3.00391 l 94.589849,-144 c 1.60547,-2.46484 1.73047,-5.60546 0.32812,-8.1875 -1.40234,-2.58203 -4.10937,-4.1875 -7.04687,-4.18359 H 98.249651 l 13.511719,-54.0625 c 0.59766,-2.38672 0.0586,-4.91406 -1.45312,-6.85547 z m 26.86328,76.91797 -63.738279,97.04297 14.40234,-71.46485 c 0.47266,-2.34765 -0.13281,-4.78515 -1.65234,-6.64062 -1.51563,-1.85547 -3.78516,-2.93359 -6.17969,-2.9375 h -60.90625 l 26.67187,-80 h 48 l -13.52734,54.06641 c -0.59375,2.38671 -0.0586,4.91796 1.45703,6.85937 1.51563,1.94141 3.83984,3.07422 6.30469,3.07422 z m 0,0"
     id="path10"
     inkscape:connector-curvature="0" />
</svg>
