<?xml version="1.0" encoding="UTF-8" standalone="no"?>
<svg
   xmlns:dc="http://purl.org/dc/elements/1.1/"
   xmlns:cc="http://creativecommons.org/ns#"
   xmlns:rdf="http://www.w3.org/1999/02/22-rdf-syntax-ns#"
   xmlns:svg="http://www.w3.org/2000/svg"
   xmlns="http://www.w3.org/2000/svg"
   xmlns:sodipodi="http://sodipodi.sourceforge.net/DTD/sodipodi-0.dtd"
   xmlns:inkscape="http://www.inkscape.org/namespaces/inkscape"
   height="15.979543pt"
   viewBox="0 -52 240 15.979543"
   width="239.69313pt"
   version="1.1"
   id="svg56"
   sodipodi:docname="line.svg"
   inkscape:version="0.92.4 (5da689c313, 2019-01-14)">
  <metadata
     id="metadata62">
    <rdf:RDF>
      <cc:Work
         rdf:about="">
        <dc:format>image/svg+xml</dc:format>
        <dc:type
           rdf:resource="http://purl.org/dc/dcmitype/StillImage" />
        <dc:title></dc:title>
      </cc:Work>
    </rdf:RDF>
  </metadata>
  <defs
     id="defs60" />
  <sodipodi:namedview
     pagecolor="#ffffff"
     bordercolor="#666666"
     borderopacity="1"
     objecttolerance="10"
     gridtolerance="10"
     guidetolerance="10"
     inkscape:pageopacity="0"
     inkscape:pageshadow="2"
     inkscape:window-width="1920"
     inkscape:window-height="1017"
     id="namedview58"
     showgrid="false"
     inkscape:zoom="0.36951983"
     inkscape:cx="192.02236"
     inkscape:cy="59.658008"
     inkscape:window-x="-8"
     inkscape:window-y="-8"
     inkscape:window-maximized="1"
     inkscape:current-layer="svg56" />
  <path
     d="m 240,-44.306626 c 0,-4.41797 -3.58203,-8 -8,-8 h -80 c -4.41797,0 -8,3.58203 -8,8 0,4.41797 3.58203,8 8,8 h 80 c 4.41797,0 8,-3.58203 8,-8 z m 0,0"
     id="path44"
     inkscape:connector-curvature="0" />
  <path
     d="m 8.000001,-36.306626 h 64 c 4.41797,0 8,-3.58203 8,-8 0,-4.41797 -3.58203,-8 -8,-8 h -64 c -4.41797,0 -8.000001,3.58203 -8.000001,8 0,4.41797 3.582031,8 8.000001,8 z m 0,0"
     id="path46"
     inkscape:connector-curvature="0" />
  <path
     d="m 120,-36.306626 c 4.41797,0 8,-3.58203 8,-8 0,-4.41797 -3.58203,-8 -8,-8 h -16 c -4.417969,0 -7.999999,3.58203 -7.999999,8 0,4.41797 3.58203,8 7.999999,8 z m 0,0"
     id="path48"
     inkscape:connector-curvature="0" />
</svg>
