<?xml version="1.0" encoding="UTF-8" standalone="no"?>
<svg
   xmlns:dc="http://purl.org/dc/elements/1.1/"
   xmlns:cc="http://creativecommons.org/ns#"
   xmlns:rdf="http://www.w3.org/1999/02/22-rdf-syntax-ns#"
   xmlns:svg="http://www.w3.org/2000/svg"
   xmlns="http://www.w3.org/2000/svg"
   xmlns:sodipodi="http://sodipodi.sourceforge.net/DTD/sodipodi-0.dtd"
   xmlns:inkscape="http://www.inkscape.org/namespaces/inkscape"
   height="95.87899pt"
   viewBox="0 -48 96.000002 95.87899"
   width="95.87899pt"
   version="1.1"
   id="svg20"
   sodipodi:docname="snowflake.svg"
   inkscape:version="0.92.4 (5da689c313, 2019-01-14)">
  <metadata
     id="metadata26">
    <rdf:RDF>
      <cc:Work
         rdf:about="">
        <dc:format>image/svg+xml</dc:format>
        <dc:type
           rdf:resource="http://purl.org/dc/dcmitype/StillImage" />
        <dc:title></dc:title>
      </cc:Work>
    </rdf:RDF>
  </metadata>
  <defs
     id="defs24" />
  <sodipodi:namedview
     pagecolor="#ffffff"
     bordercolor="#666666"
     borderopacity="1"
     objecttolerance="10"
     gridtolerance="10"
     guidetolerance="10"
     inkscape:pageopacity="0"
     inkscape:pageshadow="2"
     inkscape:window-width="1920"
     inkscape:window-height="1017"
     id="namedview22"
     showgrid="false"
     inkscape:zoom="0.36951983"
     inkscape:cx="96.141065"
     inkscape:cy="107.61419"
     inkscape:window-x="-8"
     inkscape:window-y="-8"
     inkscape:window-maximized="1"
     inkscape:current-layer="svg20" />
  <path
     d="m 9.9999997e-7,-0.30228 c 0,4.42187 3.58203000000003,8 8.00000000000003,8 h 20.6875 l -18.34375,18.34766 c -2.08203,2.00781 -2.91406,4.98046 -2.1836,7.77734 0.73438,2.79687 2.91797,4.98047 5.71485,5.71484 2.79687,0.73047 5.77344,-0.10156 7.78125,-2.18359 l 18.34375,-18.34375 v 20.6875 c 0,4.42187 3.58203,8 8,8 4.41797,0 8,-3.57813 8,-8 v -20.6875 l 18.34375,18.34375 c 3.13672,3.03516 8.1289,2.98828 11.21484,-0.0977 3.08594,-3.08593 3.12891,-8.07421 0.0977,-11.21093 L 67.312501,7.69772 h 20.6875 c 4.41797,0 8,-3.57812 8,-8 0,-4.41797 -3.58203,-8 -8,-8 h -20.6875 l 18.34375,-18.34375 c 3.03125,-3.13672 2.98828,-8.12891 -0.0977,-11.21484 -3.08594,-3.08594 -8.07812,-3.12891 -11.21484,-0.0937 l -18.34375,18.34375 v -20.69146 c 0,-4.41797 -3.58203,-8 -8,-8 -4.41797,0 -8,3.58203 -8,8 v 20.69141 l -18.34375,-18.34375 c -3.14063,-3.03516 -8.12891,-2.99219 -11.21485,0.0937 -3.08593,3.08593 -3.1289,8.07812 -0.0977,11.21484 l 18.34375,18.34375 h -20.6875 c -4.41797,0 -8,3.58203 -8,8 z m 0,0"
     id="path18"
     inkscape:connector-curvature="0" />
</svg>
